# File created by Blade
# Date/Time:  Tue Jan 27 17:09:01 2015
#---------------------------------------------------------
:version 1.10
:name HOM
:units
  mass 1.0
  length 1.000000
  angle deg
:documentation
     Acclaim Skeleton File
:root
   axis xyz
   order TX TY TZ RX RY RZ
   position 0.000000 0.000000 0.000000
   orientation 0 0 0
:bonedata
   begin
      id 1
      name Spine_dum
      direction 0.000000 1.000000 0.000000
      length 7.539951
      axis 0.0 0.0 0.0 xyz
   end
   begin
      id 2
      name LeftUpLeg_dum
      direction 1.000000 0.000000 0.000000
      length 3.345476
      axis 0.0 0.0 0.0 xyz
   end
   begin
      id 3
      name RightUpLeg_dum
      direction -1.000000 0.000000 0.000000
      length 3.345476
      axis 0.0 0.0 0.0 xyz
   end
   begin
      id 4
      name Spine
      direction 0.000000 1.000000 0.000000
      length 0.000000
      axis 0.0 0.0 0.0 xyz
      dof rx ry rz
   end
   begin
      id 5
      name Spine_dum1
      direction 0.000000 1.000000 0.000000
      length 15.093809
      axis 0.0 0.0 0.0 xyz
   end
   begin
      id 6
      name Spine_dum2
      direction 0.000000 1.000000 0.000000
      length 9.738928
      axis 0.0 0.0 0.0 xyz
   end
   begin
      id 7
      name Spine_dum3
      direction 0.000000 1.000000 0.000000
      length 9.738928
      axis 0.0 0.0 0.0 xyz
   end
   begin
      id 8
      name Head
      direction 0.000000 1.000000 0.000000
      length 4.527550
      axis 0.0 0.0 0.0 xyz
      dof rx ry rz
   end
   begin
      id 9
      name LeftShoulder
      direction 1.000000 0.000000 0.000000
      length 7.084015
      axis 0.0 0.0 -90.0 xyz
      dof rx ry rz
   end
   begin
      id 10
      name LeftArm
      direction 1.000000 0.000000 0.000000
      length 10.259319
      axis 0.0 0.0 -90.0 xyz
      dof rx ry rz
   end
   begin
      id 11
      name LeftForeArm
      direction 1.000000 0.000000 0.000000
      length 9.896984
      axis 0.0 0.0 -90.0 xyz
      dof ry rz rx
   end
   begin
      id 12
      name LeftHand
      direction 0.000000 0.000000 0.000000
      length 0.000000
      axis 0.0 0.0 -90.0 xyz
      dof rx ry rz
   end
   begin
      id 13
      name LeftHand_dum1
      direction 0.000000 0.000000 0.000000
      length 0.000000
      axis 0.0 0.0 -90.0 xyz
   end
   begin
      id 14
      name LeftHand_dum2
      direction 1.000000 0.000000 0.000000
      length 3.937000
      axis 0.0 0.0 -90.0 xyz
   end
   begin
      id 15
      name LeftHandThumb1
      direction 0.000000 0.000000 1.000000
      length 3.937000
      axis 0.0 0.0 -90.0 xyz
      dof rx rz ry
   end
   begin
      id 16
      name RightShoulder
      direction -1.000000 0.000000 0.000000
      length 7.084015
      axis 0.0 0.0 90.0 xyz
      dof rx ry rz
   end
   begin
      id 17
      name RightArm
      direction -1.000000 0.000000 0.000000
      length 10.259319
      axis 0.0 0.0 90.0 xyz
      dof rx ry rz
   end
   begin
      id 18
      name RightForeArm
      direction -1.000000 0.000000 0.000000
      length 9.896984
      axis 0.0 0.0 90.0 xyz
      dof ry rz rx
   end
   begin
      id 19
      name RightHand
      direction 0.000000 0.000000 0.000000
      length 0.000000
      axis 0.0 0.0 90.0 xyz
      dof rx ry rz
   end
   begin
      id 20
      name RightHand_dum1
      direction 0.000000 0.000000 0.000000
      length 0.000000
      axis 0.0 0.0 90.0 xyz
   end
   begin
      id 21
      name RightHand_dum2
      direction -1.000000 0.000000 0.000000
      length 3.937000
      axis 0.0 0.0 90.0 xyz
   end
   begin
      id 22
      name RightHandThumb1
      direction 0.000000 0.000000 1.000000
      length 3.937000
      axis 0.0 0.0 90.0 xyz
      dof rx rz ry
   end
   begin
      id 23
      name LeftUpLeg
      direction 0.000000 -1.000000 0.000000
      length 19.114733
      axis 0.0 0.0 0.0 xyz
      dof rx ry rz
   end
   begin
      id 24
      name LeftLeg
      direction 0.000000 -1.000000 0.000000
      length 16.045604
      axis 0.0 0.0 0.0 xyz
      dof rx ry rz
   end
   begin
      id 25
      name LeftFoot
      direction 0.000000 -0.258819 0.965926
      length 5.543155
      axis 15.0 0.0 0.0 xyz
      dof rx ry rz
   end
   begin
      id 26
      name LeftToeBase
      direction 0.000000 0.000000 1.000000
      length 2.952750
      axis 0.0 0.0 0.0 xyz
      dof rx ry rz
   end
   begin
      id 27
      name RightUpLeg
      direction 0.000000 -1.000000 0.000000
      length 19.114733
      axis 0.0 0.0 0.0 xyz
      dof rx ry rz
   end
   begin
      id 28
      name RightLeg
      direction 0.000000 -1.000000 0.000000
      length 16.045604
      axis 0.0 0.0 0.0 xyz
      dof rx ry rz
   end
   begin
      id 29
      name RightFoot
      direction 0.000000 -0.258819 0.965926
      length 5.543155
      axis 15.0 0.0 0.0 xyz
      dof rx ry rz
   end
   begin
      id 30
      name RightToeBase
      direction 0.000000 0.000000 1.000000
      length 2.952750
      axis 0.0 0.0 0.0 xyz
      dof rx ry rz
   end
:hierarchy
   begin
      root Spine_dum LeftUpLeg_dum RightUpLeg_dum
      Spine_dum Spine
      LeftUpLeg_dum LeftUpLeg
      RightUpLeg_dum RightUpLeg
      Spine Spine_dum1 Spine_dum2 Spine_dum3
      Spine_dum1 Head
      Spine_dum2 LeftShoulder
      Spine_dum3 RightShoulder
      LeftShoulder LeftArm
      LeftArm LeftForeArm
      LeftForeArm LeftHand
      LeftHand LeftHand_dum1 LeftHand_dum2
      LeftHand_dum1 LeftHandThumb1
      RightShoulder RightArm
      RightArm RightForeArm
      RightForeArm RightHand
      RightHand RightHand_dum1 RightHand_dum2
      RightHand_dum1 RightHandThumb1
      LeftUpLeg LeftLeg
      LeftLeg LeftFoot
      LeftFoot LeftToeBase
      RightUpLeg RightLeg
      RightLeg RightFoot
      RightFoot RightToeBase
   end

# File created by Blade
# Date/Time:  Tue Jan 27 17:08:52 2015
# Frame Rate: 120.000 fps
#------------------------------------------------------
:FULLY-SPECIFIED
:DEGREES
3104
root -2.435235 36.539342 0.403489 5.410138 -41.006976 -8.486001
Spine 3.219744 11.016994 -0.610153
Head -0.193894 -0.748378 13.350795
LeftShoulder -6.404501 -3.982156 9.621776
LeftArm -16.806997 -30.130286 -37.759951
LeftForeArm 17.949316 -0.000000 102.675821
LeftHand -22.208002 -0.000000 30.607948
LeftHandThumb1 -26.253704 0.000000 33.147579
RightShoulder -3.822831 -24.337787 1.925753
RightArm 23.397945 -27.253910 55.511135
RightForeArm 178.062503 0.000000 45.065860
RightHand -0.805848 -0.000000 9.035662
RightHandThumb1 -24.326973 -0.000000 -32.862282
LeftUpLeg -8.051792 13.645322 2.427811
LeftLeg 25.234670 -0.000000 -0.000000
LeftFoot -28.083133 15.981073 -11.087552
LeftToeBase 13.496883 -0.000000 -0.000000
RightUpLeg -17.967498 -26.789915 -0.651053
RightLeg 33.414155 -0.000000 -0.000000
RightFoot -4.839542 -12.700749 20.171523
RightToeBase -9.044111 -0.000000 0.000000
3105
root -2.408466 36.556760 0.392241 5.658559 -41.004238 -8.954930
Spine 3.446159 11.022517 -0.441750
Head -0.379111 -1.601548 13.662209
LeftShoulder -6.386724 -3.957036 9.732424
LeftArm -16.824099 -30.226395 -37.814657
LeftForeArm 17.887634 -0.000000 103.002137
LeftHand -22.254070 -0.000000 30.505726
LeftHandThumb1 -26.253704 0.000000 33.147579
RightShoulder -3.813903 -24.299945 2.031889
RightArm 23.287875 -26.912684 55.503411
RightForeArm 177.818145 -0.000000 45.661026
RightHand -0.775823 0.000000 9.222907
RightHandThumb1 -24.326973 -0.000000 -32.862282
LeftUpLeg -8.044350 13.587424 2.761097
LeftLeg 25.255780 -0.000000 -0.000000
LeftFoot -28.089954 16.064724 -11.121032
LeftToeBase 13.506009 -0.000000 -0.000000
RightUpLeg -18.340904 -26.948661 -0.449728
RightLeg 34.159232 -0.000000 -0.000000
RightFoot -3.761201 -12.178451 20.507882
RightToeBase -10.208244 -0.000000 0.000000
3106
root -2.377561 36.573810 0.379757 5.904235 -41.014102 -9.384326
Spine 3.656007 11.045322 -0.334977
Head -0.584798 -2.531020 14.017997
LeftShoulder -6.364161 -3.951845 9.871549
LeftArm -16.867900 -30.309263 -37.850394
LeftForeArm 17.793467 -0.000000 103.348949
LeftHand -22.270676 -0.000000 30.329011
LeftHandThumb1 -26.253704 0.000000 33.147579
RightShoulder -3.854033 -24.234881 2.174839
RightArm 23.194996 -26.612794 55.481858
RightForeArm 177.577767 -0.000000 46.290104
RightHand -0.735480 -0.000000 9.437917
RightHandThumb1 -24.326973 -0.000000 -32.862282
LeftUpLeg -8.059584 13.550945 3.048511
LeftLeg 25.254156 -0.000000 -0.000000
LeftFoot -28.061173 16.154442 -11.115191
LeftToeBase 13.523923 -0.000000 -0.000000
RightUpLeg -18.816350 -27.212363 -0.256408
RightLeg 34.991800 -0.000000 -0.000000
RightFoot -2.642733 -11.715288 20.900785
RightToeBase -11.295828 -0.000000 0.000000
3107
root -2.344991 36.591559 0.367367 6.164970 -41.058623 -9.856723
Spine 3.890558 11.109263 -0.179493
Head -0.795091 -3.547518 14.355638
LeftShoulder -6.295278 -3.992259 10.003395
LeftArm -17.006015 -30.379207 -37.850898
LeftForeArm 17.706723 0.000000 103.712070
LeftHand -22.348889 -0.000000 30.367341
LeftHandThumb1 -26.253704 0.000000 33.147579
RightShoulder -3.874715 -24.192050 2.291789
RightArm 23.091821 -26.254573 55.491624
RightForeArm 177.279672 -0.000000 46.951529
RightHand -0.651932 0.000000 9.613658
RightHandThumb1 -24.326973 -0.000000 -32.862282
LeftUpLeg -8.054830 13.580984 3.370249
LeftLeg 25.257406 -0.000000 -0.000000
LeftFoot -28.036555 16.245343 -11.098329
LeftToeBase 13.570411 -0.000000 -0.000000
RightUpLeg -19.315011 -27.435972 -0.064137
RightLeg 35.866602 -0.000000 -0.000000
RightFoot -1.381298 -11.190680 21.319043
RightToeBase -12.489443 -0.000000 0.000000
3108
root -2.303102 36.607869 0.346050 6.476144 -41.069221 -10.284913
Spine 4.063100 11.122008 -0.095679
Head -1.023070 -4.597304 14.732660
LeftShoulder -6.261286 -4.043277 10.170504
LeftArm -17.146609 -30.460657 -37.858649
LeftForeArm 17.581997 -0.000000 104.094450
LeftHand -22.416767 -0.000000 30.263116
LeftHandThumb1 -26.253704 0.000000 33.147579
RightShoulder -3.906895 -24.097817 2.423573
RightArm 22.963515 -25.925049 55.508409
RightForeArm 176.975704 -0.000000 47.692172
RightHand -0.497177 -0.000000 9.887183
RightHandThumb1 -24.326973 -0.000000 -32.862282
LeftUpLeg -8.118850 13.493453 3.644371
LeftLeg 25.189444 -0.000000 -0.000000
LeftFoot -28.007510 16.307184 -11.176400
LeftToeBase 13.509031 -0.000000 -0.000000
RightUpLeg -19.990077 -27.748357 0.151713
RightLeg 36.833224 -0.000000 -0.000000
RightFoot -0.077377 -10.675402 21.758085
RightToeBase -13.368668 -0.000000 0.000000
3109
root -2.257125 36.622443 0.327019 6.784115 -41.146877 -10.721327
Spine 4.246584 11.185436 0.006849
Head -1.235627 -5.752706 15.051426
LeftShoulder -6.240790 -4.085829 10.321658
LeftArm -17.261930 -30.523552 -37.865658
LeftForeArm 17.417210 -0.000000 104.437460
LeftHand -22.585875 -0.000000 30.831830
LeftHandThumb1 -26.253704 0.000000 33.147579
RightShoulder -3.920022 -24.034170 2.509850
RightArm 22.880859 -25.601342 55.515360
RightForeArm 176.512088 0.000000 48.464133
RightHand -0.423110 -0.000000 10.190636
RightHandThumb1 -24.326973 -0.000000 -32.862282
LeftUpLeg -8.235899 13.540704 3.898944
LeftLeg 25.262093 -0.000000 -0.000000
LeftFoot -27.993238 16.449538 -11.172386
LeftToeBase 13.543997 -0.000000 -0.000000
RightUpLeg -20.701599 -28.049361 0.333329
RightLeg 37.844860 -0.000000 -0.000000
RightFoot 1.299728 -10.100876 22.043948
RightToeBase -14.138441 -0.000000 0.000000
3110
root -2.222180 36.640703 0.313398 7.083534 -41.153772 -11.259580
Spine 4.495508 11.202255 0.235082
Head -1.429002 -6.942027 15.360875
LeftShoulder -6.185145 -4.079073 10.413206
LeftArm -17.397913 -30.652145 -37.838576
LeftForeArm 17.274131 -0.000000 104.828885
LeftHand -22.750548 -0.000000 30.883566
LeftHandThumb1 -26.253704 0.000000 33.147579
RightShoulder -3.959898 -23.964713 2.615979
RightArm 22.757736 -25.253700 55.528487
RightForeArm 175.969966 -0.000000 49.295913
RightHand -0.332475 -0.000000 10.472228
RightHandThumb1 -24.326973 -0.000000 -32.862282
LeftUpLeg -8.264633 13.568724 4.274629
LeftLeg 25.338443 -0.000000 -0.000000
LeftFoot -27.993811 16.513318 -11.188508
LeftToeBase 13.565862 -0.000000 -0.000000
RightUpLeg -21.294794 -28.406085 0.532993
RightLeg 38.834884 -0.000000 -0.000000
RightFoot 2.801909 -9.381849 22.104506
RightToeBase -14.259606 -0.000000 0.000000
